<?xml version="1.0" encoding="UTF-8" standalone="no"?><svg xmlns="http://www.w3.org/2000/svg" xmlns:xlink="http://www.w3.org/1999/xlink" contentScriptType="application/ecmascript" contentStyleType="text/css" height="446px" preserveAspectRatio="none" style="width:506px;height:446px;" version="1.1" viewBox="0 0 506 446" width="506px" zoomAndPan="magnify"><defs><filter height="300%" id="f8y4jmafjtyjg" width="300%" x="-1" y="-1"><feGaussianBlur result="blurOut" stdDeviation="2.0"/><feColorMatrix in="blurOut" result="blurOut2" type="matrix" values="0 0 0 0 0 0 0 0 0 0 0 0 0 0 0 0 0 0 .4 0"/><feOffset dx="4.0" dy="4.0" in="blurOut2" result="blurOut3"/><feBlend in="SourceGraphic" in2="blurOut3" mode="normal"/></filter></defs><g><!--cluster db--><path d="M91,26 C91,16 249,16 249,16 C249,16 407,16 407,26 L407,102 C407,112 249,112 249,112 C249,112 91,112 91,102 L91,26 " fill="#FFFFFF" filter="url(#f8y4jmafjtyjg)" style="stroke: #000000; stroke-width: 1.5;"/><path d="M91,26 C91,36 249,36 249,36 C249,36 407,36 407,26 " fill="none" style="stroke: #000000; stroke-width: 1.5;"/><text fill="#000000" font-family="sans-serif" font-size="14" font-weight="bold" lengthAdjust="spacingAndGlyphs" textLength="88" x="205" y="50.5352">Device Twin</text><!--entity twin--><polygon fill="#F8F8F8" filter="url(#f8y4jmafjtyjg)" points="277.5,58,277.5,57.629,287.5833,57.6833,297.6667,58.4877,307.75,58.3638,317.8333,57.6572,327.9167,57.5353,338,57.5943,348.0833,58.5354,358.1667,57.5948,368.25,57.8262,378.3333,57.721,388.4167,58.218,398.5,58,398.0592,58,399.0428,67.2977,399.0233,76.5953,397.7638,85.893,398.1827,95.1906,398.5,104.4883,398.5,104.6436,388.4167,103.8224,378.3333,103.8918,368.25,103.8494,358.1667,104.1492,348.0833,104.5054,338,104.9604,327.9167,104.4761,317.8333,104.8464,307.75,104.1246,297.6667,104.577,287.5833,104.8361,277.5,104.4883,276.9555,104.4883,278.0668,95.1906,277.2072,85.893,276.8771,76.5953,277.7841,67.2977,277.5,58" style="stroke: #000000; stroke-width: 1.5;"/><path d="M317.8333,59 L318.2985,59 L318.0686,59.8 L317.6431,60.6 L317.7897,61.4 L317.6936,62.2 L317.8333,63 L318.2065,63.3731 L316.1831,64.1497 L315.4873,66.254 L313.4694,67.036 L312.144,68.5107 L310.8333,70 L310.8333,70.0138 L304.1667,70.24 L297.5,70.5715 L290.8333,69.5492 L284.1667,70.0016 L277.5,70 " fill="none" style="stroke: #000000; stroke-width: 1.5;"/><text fill="#000000" font-family="sans-serif" font-size="14" lengthAdjust="spacingAndGlyphs" textLength="81" x="292.5" y="91.5352">Device Twin</text><!--entity telemetry--><polygon fill="#F8F8F8" filter="url(#f8y4jmafjtyjg)" points="99.5,58,99.5,57.6503,109.7143,58.6493,119.9286,58.5027,130.1429,57.5419,140.3571,57.5061,150.5714,58.5232,160.7857,57.9728,171,58.3997,181.2143,58.0068,191.4286,58.1531,201.6429,58.3062,211.8571,57.2863,222.0714,57.9381,232.2857,57.8034,242.5,58,242.9813,58,241.904,67.2977,242.1589,76.5953,242.9856,85.893,242.0591,95.1906,242.5,104.4883,242.5,104.2664,232.2857,104.8137,222.0714,104.749,211.8571,104.7273,201.6429,104.9558,191.4286,104.3525,181.2143,104.2758,171,104.4607,160.7857,105.1856,150.5714,104.1318,140.3571,103.9394,130.1429,104.9852,119.9286,104.6593,109.7143,105.1405,99.5,104.4883,99.4443,104.4883,100.1465,95.1906,99.799,85.893,99.2475,76.5953,99.7225,67.2977,99.5,58" style="stroke: #000000; stroke-width: 1.5;"/><path d="M147.1667,59 L147.5436,59 L147.4599,59.8 L147.7639,60.6 L146.5635,61.4 L146.8121,62.2 L147.1667,63 L146.7773,62.6106 L145.4983,64.1316 L144.7501,66.1834 L142.9784,67.2117 L141.3412,68.3745 L140.1667,70 L140.1667,70.6055 L132.0333,70.5755 L123.9,70.2866 L115.7667,70.5085 L107.6333,70.1008 L99.5,70 " fill="none" style="stroke: #000000; stroke-width: 1.5;"/><text fill="#000000" font-family="sans-serif" font-size="14" lengthAdjust="spacingAndGlyphs" textLength="103" x="114.5" y="91.5352">Telemetry Data</text><!--entity mqtt--><polygon fill="#F8F8F8" filter="url(#f8y4jmafjtyjg)" points="11,174,10.865,173.865,12.8964,171.8964,14.9342,169.9342,17.1122,168.1122,18.8641,165.8641,21,164,21,163.906,31,163.3606,41,164.0322,51,163.993,61,163.7471,71,163.9963,81,163.6841,91,164.358,101,163.5028,111,164.3793,121,164.399,131,164.0573,141,164,141.0937,164,141.1862,171.2977,141.1565,178.5953,140.8193,185.893,140.7987,193.1906,141,200.4883,141.1464,200.6347,139.1551,202.6434,137.1458,204.6341,135.0708,206.5591,133.0432,208.5314,131,210.4883,131,209.8133,121,210.0118,111,211.1538,101,209.8482,91,211.0572,81,210.431,71,211.1597,61,210.8656,51,210.2389,41,210.9163,31,211.0065,21,210.1757,11,210.4883,10.9922,210.4883,11.0757,203.1906,11.0949,195.893,11.1385,188.5953,11.2462,181.2977,11,174" style="stroke: #000000; stroke-width: 1.5;"/><path d="M131,174 L130.8997,173.8997 L132.6404,172.0404 L134.8192,170.6192 L136.3689,168.5689 L138.1909,166.7909 L140,165 " fill="#F8F8F8" style="stroke: #000000; stroke-width: 1.5;"/><path d="M11,174 L11,174.8309 L21,173.2835 L31,173.492 L41,173.2055 L51,173.1492 L61,173.9718 L71,174.7409 L81,174.3269 L91,173.3248 L101,174.6751 L111,173.2466 L121,174.6288 L131,174 " fill="#F8F8F8" style="stroke: #000000; stroke-width: 1.5;"/><path d="M131,174 L131.0891,174 L131.0877,181.2977 L131.236,188.5953 L131.0757,195.893 L130.7513,203.1906 L131,210.4883 " fill="#F8F8F8" style="stroke: #000000; stroke-width: 1.5;"/><text fill="#000000" font-family="sans-serif" font-size="14" lengthAdjust="spacingAndGlyphs" textLength="90" x="26" y="197.5352">MQTT Broker</text><!--entity device--><polygon fill="#F8F8F8" filter="url(#f8y4jmafjtyjg)" points="114,398,113.9862,397.9862,116.0355,396.0355,118.0447,394.0447,120.0425,392.0425,121.9237,389.9237,124,388,124,387.5053,134.5714,388.0492,145.1429,388.4835,155.7143,388.2799,166.2857,388.611,176.8571,388.5198,187.4286,387.8155,198,388,198.1697,388,198.1562,395.2977,198.0714,402.5953,198.1491,409.893,198.1931,417.1906,198,424.4883,198.0726,424.5609,196.1113,426.5996,193.9943,428.4826,191.9669,430.4552,189.899,432.3873,188,434.4883,188,434.2658,177.4286,434.7642,166.8571,434.302,156.2857,434.6094,145.7143,434.4082,135.1429,435.1186,124.5714,434.727,114,434.4883,113.778,434.4883,114.2014,427.1906,113.7826,419.893,114.01,412.5953,113.7782,405.2977,114,398" style="stroke: #000000; stroke-width: 1.5;"/><path d="M188,398 L187.9095,397.9095 L189.6106,396.0106 L191.8072,394.6072 L193.2672,392.4672 L195.3387,390.9387 L197,389 " fill="#F8F8F8" style="stroke: #000000; stroke-width: 1.5;"/><path d="M114,398 L114,397.9163 L124.5714,398.3483 L135.1429,397.1413 L145.7143,398.783 L156.2857,398.809 L166.8571,398.9425 L177.4286,397.4196 L188,398 " fill="#F8F8F8" style="stroke: #000000; stroke-width: 1.5;"/><path d="M188,398 L187.6769,398 L188.2608,405.2977 L188.1303,412.5953 L188.0801,419.893 L188.007,427.1906 L188,434.4883 " fill="#F8F8F8" style="stroke: #000000; stroke-width: 1.5;"/><text fill="#000000" font-family="sans-serif" font-size="14" lengthAdjust="spacingAndGlyphs" textLength="44" x="129" y="421.5352">Device</text><!--entity server--><polygon fill="#F8F8F8" filter="url(#f8y4jmafjtyjg)" points="204,174,204.0486,174.0486,205.9249,171.9249,207.8726,169.8726,210.138,168.138,211.9493,165.9493,214,164,214,164.0039,224,163.279,234,164.719,244,163.9646,254,163.5965,264,163.3436,274,163.3626,284,163.4654,294,164.6237,304,164,304.2367,164,304.2492,171.2977,304.1845,178.5953,303.8141,185.893,303.8831,193.1906,304,200.4883,304.1758,200.6641,302.1112,202.5994,300.0904,204.5787,297.9696,206.4579,296.1453,208.6336,294,210.4883,294,211.1995,284,211.2328,274,210.9861,264,210.9147,254,210.2428,244,211.138,234,210.9372,224,210.1139,214,209.8102,204,210.4883,204.193,210.4883,204.0171,203.1906,203.986,195.893,204.0647,188.5953,203.7551,181.2977,204,174" style="stroke: #000000; stroke-width: 1.5;"/><path d="M294,174 L293.9166,173.9166 L295.6803,172.0803 L297.556,170.356 L299.5026,168.7026 L301.394,166.994 L303,165 " fill="#F8F8F8" style="stroke: #000000; stroke-width: 1.5;"/><path d="M204,174 L204,173.0732 L214,174.0853 L224,173.9233 L234,173.4756 L244,173.4078 L254,173.713 L264,173.4283 L274,173.1546 L284,174.0848 L294,174 " fill="#F8F8F8" style="stroke: #000000; stroke-width: 1.5;"/><path d="M294,174 L293.6808,174 L294.0797,181.2977 L293.8239,188.5953 L293.9555,195.893 L293.817,203.1906 L294,210.4883 " fill="#F8F8F8" style="stroke: #000000; stroke-width: 1.5;"/><text fill="#000000" font-family="sans-serif" font-size="14" lengthAdjust="spacingAndGlyphs" textLength="60" x="219" y="197.5352">REST API</text><!--entity app--><polygon fill="#F8F8F8" filter="url(#f8y4jmafjtyjg)" points="381,398,380.9252,397.9252,383.0343,396.0343,384.9824,393.9824,387.1676,392.1676,388.8335,389.8335,391,388,391,388.137,400.6667,387.4509,410.3333,387.8256,420,388.7331,429.6667,388.0097,439.3333,388.5647,449,388,448.8035,388,449.0984,395.2977,449.0049,402.5953,448.9572,409.893,449.195,417.1906,449,424.4883,449.1267,424.615,446.9269,426.4152,444.9468,428.4351,443.0809,430.5691,440.9872,432.4755,439,434.4883,439,435.0686,429.3333,434.275,419.6667,433.9638,410,434.2118,400.3333,434.3668,390.6667,434.2671,381,434.4883,380.898,434.4883,380.9907,427.1906,380.9612,419.893,381.1517,412.5953,381.1128,405.2977,381,398" style="stroke: #000000; stroke-width: 1.5;"/><path d="M439,398 L438.9566,397.9566 L440.8952,396.2952 L442.6934,394.4934 L444.2615,392.4615 L446.2096,390.8096 L448,389 " fill="#F8F8F8" style="stroke: #000000; stroke-width: 1.5;"/><path d="M381,398 L381,398.5858 L390.6667,397.5258 L400.3333,397.3507 L410,397.0961 L419.6667,398.2792 L429.3333,398.0553 L439,398 " fill="#F8F8F8" style="stroke: #000000; stroke-width: 1.5;"/><path d="M439,398 L438.7339,398 L439.0641,405.2977 L438.8852,412.5953 L438.7588,419.893 L439.0494,427.1906 L439,434.4883 " fill="#F8F8F8" style="stroke: #000000; stroke-width: 1.5;"/><text fill="#000000" font-family="sans-serif" font-size="14" lengthAdjust="spacingAndGlyphs" textLength="28" x="396" y="421.5352">App</text><!--entity Publish--><polygon fill="#F8F8F8" filter="url(#f8y4jmafjtyjg)" points="163.7669,300.9587,162.8042,302.8307,161.4265,305.0245,159.3686,306.7099,156.9195,306.7551,154.6504,306.5109,152.8035,306.4205,151.414,305.2621,149.943,303.5291,148.4511,301.304,147.8449,299.7735,147.8975,297.5675,149.1611,295.9057,150.3141,294.0003,151.1106,292.7977,152.981,291.8278,154.7165,290.664,156.4551,291.4457,158.1051,291.4816,160.0867,291.6358,161.5691,292.9829,162.6971,294.9183,163.375,297.4202,164.2439,299.4822" style="stroke: #383838; stroke-width: 2.0;"/><text fill="#000000" font-family="sans-serif" font-size="14" lengthAdjust="spacingAndGlyphs" textLength="50" x="131" y="329.5352">Publish</text><!--entity Subscribe--><polygon fill="#F8F8F8" filter="url(#f8y4jmafjtyjg)" points="54.3881,301.3379,53.5761,303.9181,52.3152,304.9002,51.114,306.3852,48.5267,306.4872,46.0004,306.4701,44.492,306.7735,42.3744,306.0266,41.0398,304.6195,39.5318,302.6255,39.6636,300.6476,39.2428,298.1539,39.7335,296.4456,40.3561,294.8947,41.9882,292.785,42.994,291.7297,44.9114,290.8299,46.604,290.5166,49.0222,291.4058,51.1601,291.994,52.5583,292.9141,54.0947,295.1628,54.8161,297.4752,54.8963,299.3519" style="stroke: #383838; stroke-width: 2.0;"/><text fill="#000000" font-family="sans-serif" font-size="14" lengthAdjust="spacingAndGlyphs" textLength="67" x="13.5" y="329.5352">Subscribe</text><!--entity Telemetry--><polygon fill="#F8F8F8" filter="url(#f8y4jmafjtyjg)" points="368.8912,300.742,367.3848,302.9831,366.9235,304.7621,365.1404,305.8397,362.8264,306.5396,360.3647,307.1915,358.3768,306.5029,356.7748,305.7064,354.9565,303.6911,353.1475,302.1659,352.7708,299.7376,352.8952,297.3501,353.3837,295.7013,354.8165,294.7126,356.4806,292.8307,358.6468,291.563,360.2373,290.9878,362.0615,291.2903,364.6038,291.8675,367.0026,293.1723,368.2289,295.2179,368.2816,297.0678,369.0289,299.2134" style="stroke: #383838; stroke-width: 2.0;"/><text fill="#000000" font-family="sans-serif" font-size="14" lengthAdjust="spacingAndGlyphs" textLength="68" x="327" y="329.5352">Telemetry</text><!--entity Device--><polygon fill="#F8F8F8" filter="url(#f8y4jmafjtyjg)" points="262.2465,300.5972,260.9859,303.0675,259.6704,304.2718,257.8235,306.2822,255.4868,307.0036,253.7251,306.8122,251.4173,306.1186,249.5021,305.1509,247.8281,304.0243,246.1077,302.1407,246.3478,299.2586,246.5408,297.8546,246.5528,295.1531,248.6825,293.4623,249.6662,291.865,251.1479,291.3514,253.7549,291.307,255.333,291.1188,257.0433,291.1234,258.7648,292.367,260.2591,293.6628,261.3082,295.6153,261.9704,297.4723,262.1831,299.7792" style="stroke: #383838; stroke-width: 2.0;"/><text fill="#000000" font-family="sans-serif" font-size="14" lengthAdjust="spacingAndGlyphs" textLength="44" x="232" y="329.5352">Device</text><!--entity Service--><polygon fill="#F8F8F8" filter="url(#f8y4jmafjtyjg)" points="477.4235,300.872,476.8614,302.7833,475.4105,304.939,473.862,305.8749,471.4181,306.9,468.9869,306.8722,467.5607,306.5498,465.0216,305.428,463.1947,303.6394,462.2065,302.1426,461.9133,299.4319,462.5539,297.0548,462.9216,294.8778,464.052,293.6107,465.8289,292.7631,467.8739,291.4125,469.7954,291.0555,471.329,290.7942,473.003,292.0008,474.4937,292.9463,476.1763,293.2065,476.7695,295.695,477.7682,296.7771,478.3355,298.3531,477.8127,299.8602" style="stroke: #383838; stroke-width: 2.0;"/><text fill="#000000" font-family="sans-serif" font-size="14" lengthAdjust="spacingAndGlyphs" textLength="48" x="446" y="329.5352">Service</text><!--link mqtt to Publish--><path d="M92.5761,210.2065 L93.383,210.7829 L99.0103,218.6978 L103.1312,225.5368 L109.9897,234.3312 L114.5417,241.4781 L121.4735,250.3249 L126.8041,258.028 L132.0312,265.6572 L138.0301,273.8375 L143.2928,281.4921 L149.3852,289.7393 " fill="none" style="stroke: #383838; stroke-width: 1.0;"/><!--link mqtt to Subscribe--><path d="M69.9912,210.2065 L70.6648,210.3809 L67.4539,220.1576 L63.8892,229.8428 L63.1837,240.2682 L59.7203,249.9796 L56.5979,259.7792 L54.6858,269.8922 L51.8705,279.7714 L49.3979,289.7393 " fill="none" style="stroke: #383838; stroke-width: 1.0;"/><!--link server to Publish--><path d="M233.6943,210.2065 L234.3747,210.8019 L227.8793,217.8142 L220.8633,224.3709 L214.3183,231.3398 L209.0341,239.4119 L202.2619,246.182 L196.1164,253.5003 L189.0412,260.0054 L184.0945,268.3727 L176.8232,274.7061 L170.7773,282.1117 " fill="none" style="stroke: #383838; stroke-width: 1.0;"/><path d="M172.4948,292.992 A9,9 0 0 0 159.7655 281.8536" fill="none" style="stroke: #383838; stroke-width: 1.5;"/><!--link server to Subscribe--><path d="M211.3605,210.0707 L211.4319,210.2027 L202.8026,214.8223 L194.3213,219.7157 L185.4726,223.9298 L177.1184,229.058 L168.7923,234.238 L159.9802,238.5199 L150.6606,241.8638 L142.1133,246.635 L134.1915,252.5625 L125.0824,256.2954 L116.2719,260.5801 L107.9086,265.6915 L99.6849,271.0609 L91.2441,276.029 L81.8592,279.2521 L73.2032,283.8225 L65.013,289.2538 " fill="none" style="stroke: #383838; stroke-width: 1.0;"/><path d="M62.9303,299.9965 A9,9 0 0 0 54.8811 285.12" fill="none" style="stroke: #383838; stroke-width: 1.5;"/><!--link server to Device--><path d="M254,210.2065 L253.5185,210.2065 L254.9295,220.1481 L253.3975,230.0897 L254.8032,240.0313 L253.2515,249.9729 L254.0744,259.9145 L253.7885,269.8561 L254.2746,279.7977 L254,289.7393 " fill="none" style="stroke: #383838; stroke-width: 1.0;"/><!--link server to Service--><path d="M302.713,210.0478 L302.6115,209.839 L308.213,212.8399 L313.5281,215.2517 L318.9108,217.8026 L324.2773,220.3201 L329.8368,223.2347 L329.8689,223.2992 L335.673,225.9207 L341.8457,229.2837 L347.7907,232.1887 L353.8026,235.2284 L359.7237,238.0852 L359.5764,237.797 L366.0561,241.5265 L372.0389,244.2838 L378.3998,247.7808 L384.5689,250.9027 L390.6769,253.9049 L390.6343,253.8237 L393.6395,255.3129 L396.8827,257.2556 L399.9245,258.8146 L402.9237,260.2924 L406.0233,261.9614 L405.9335,261.7943 L409.1343,263.7847 L411.9771,265.1083 L414.9645,266.7011 L417.9573,268.304 L421,270 L421.0886,270.1586 L423.1328,271.1648 L425.1615,272.143 L427.3471,273.4024 L429.5533,274.6985 L431.769,276.0119 L431.9004,276.2379 L434.0177,277.4411 L436.0037,278.4182 L438.2711,279.8795 L440.2947,280.9214 L442.4749,282.2327 L442.3986,282.1061 L445.9703,284.1771 L449.6275,286.39 L453.493,288.9484 L456.9284,290.7933 L460.7233,293.2345 " fill="none" style="stroke: #383838; stroke-width: 1.0;"/><!--link server to Telemetry--><path d="M276.1705,210.2065 L276.4419,210.4658 L282.3552,216.7462 L290.5305,225.1877 L296.8748,231.8799 L304.3589,239.6611 L311.1762,246.8052 L318.2144,254.1604 L324.9675,261.2431 L330.7511,267.3996 L337.7404,274.7081 L344.5907,281.8837 L352.1527,289.7393 " fill="none" style="stroke: #383838; stroke-width: 1.0;"/><!--link twin to server--><path d="M319.7733,104.0004 L320.4194,104.5124 L314.0779,111.6314 L307.9328,118.906 L301.5782,126.0147 L295.6125,133.4314 L290.8542,141.8051 L284.1842,148.6637 L277.9448,155.8636 L272.4813,163.6784 " fill="none" style="stroke: #383838; stroke-width: 1.0;"/><!--link telemetry to server--><path d="M189.0098,104.0004 L189.632,104.4876 L195.4473,111.9271 L200.4121,118.7007 L206.0922,126.0343 L211.8008,133.3904 L217.8835,141.0393 L223.6677,148.4544 L230.5569,156.7349 L235.7388,163.6784 " fill="none" style="stroke: #383838; stroke-width: 1.0;"/><!--link Service to app--><path d="M460.9873,317.3532 L460.5272,317.1273 L456.5372,326.096 L452.9048,335.2402 L447.6043,343.5654 L444.5059,352.9719 L438.7111,361.0543 L434.7131,370.019 L431.0271,379.137 L426.3971,387.7914 " fill="none" style="stroke: #383838; stroke-width: 1.0;"/><path d="M456.551,307.2006 A9,9 0 0 0 471.7336 314.6562" fill="none" style="stroke: #383838; stroke-width: 1.5;"/><!--link Telemetry to app--><path d="M369.8488,317.3532 L368.9939,316.941 L374.0013,326.1133 L378.3381,334.9623 L383.2287,344.0782 L386.9118,352.612 L391.1514,361.4141 L395.7221,370.3758 L399.1915,378.8066 L403.8101,387.7914 " fill="none" style="stroke: #383838; stroke-width: 1.0;"/><path d="M359.1378,314.6111 A9,9 0 0 0 374.3739 307.2652" fill="none" style="stroke: #383838; stroke-width: 1.5;"/><!--link Publish to device--><path d="M156,318.4286 L156.8112,318.4286 L155.0362,328.3376 L155.8877,338.2465 L155.5008,348.1555 L155.5243,358.0645 L156.9715,367.9735 L155.4124,377.8824 L156,387.7914 " fill="none" style="stroke: #383838; stroke-width: 1.0;"/><path d="M147.5428,311.2437 A9,9 0 0 0 164.4573 311.2435" fill="none" style="stroke: #383838; stroke-width: 1.5;"/><!--link Subscribe to device--><path d="M63.0831,315.5258 L63.0835,315.5262 L70.6661,323.2876 L76.5147,329.3615 L84.8585,337.8638 L90.7253,343.9554 L97.8824,351.3027 L105.7031,359.2958 L112.5057,366.2982 L118.7777,372.7841 L125.7128,379.9154 L133.4131,387.7914 " fill="none" style="stroke: #383838; stroke-width: 1.0;"/><path d="M52.0059,316.2698 A9,9 0 0 0 64.1276 304.4729" fill="none" style="stroke: #383838; stroke-width: 1.5;"/><!--link Device to device--><path d="M239.3154,315.7824 L238.7613,315.2976 L233.6293,323.5211 L226.3343,329.8521 L220.2377,337.2317 L214.6676,345.072 L207.7983,351.7754 L202.2079,359.5979 L195.3717,366.3303 L188.8874,373.3706 L182.4409,380.4441 L176.3075,387.7914 " fill="none" style="stroke: #383838; stroke-width: 1.0;"/><path d="M237.5885,304.9128 A9,9 0 0 0 250.3179 316.0511" fill="none" style="stroke: #383838; stroke-width: 1.5;"/><!--
@startuml
skinparam handwritten true
skinparam monochrome true

node mqtt as "MQTT Broker"
node device as "Device"
node server as "REST API"
node app as "App"
database db as "Device Twin" {
    frame twin as "Device Twin"
    frame telemetry as "Telemetry Data"
}
interface Publish
interface Subscribe
interface Telemetry
interface Device
interface Service


mqtt - - Publish
mqtt - - Subscribe
server - -( Publish 
server - -( Subscribe
server - -() Device
server - -() Service
server - -() Telemetry
twin - - server
telemetry - - server
Service )- - app
Telemetry )- - app
Publish )- - device 
Subscribe )- - device
Device )- - device

@enduml

PlantUML version 1.2018.03(Thu Apr 05 18:59:15 CEST 2018)
(GPL source distribution)
Java Runtime: Java(TM) SE Runtime Environment
JVM: Java HotSpot(TM) 64-Bit Server VM
Java Version: 1.8.0_101-b13
Operating System: Mac OS X
OS Version: 10.13.6
Default Encoding: UTF-8
Language: en
Country: US
--></g></svg>